<svg width="19" height="19" viewBox="0 0 19 19" fill="none" xmlns="http://www.w3.org/2000/svg">
<path d="M17.759 16.29L14.3545 12.9C15.4529 11.5025 16.0489 9.77666 16.0467 8C16.0467 6.41775 15.5769 4.87104 14.6967 3.55544C13.8165 2.23985 12.5654 1.21447 11.1016 0.608967C9.63783 0.00346625 8.02715 -0.15496 6.47324 0.153721C4.91932 0.462403 3.49195 1.22433 2.37164 2.34315C1.25132 3.46197 0.48838 4.88743 0.179287 6.43928C-0.129807 7.99113 0.028831 9.59966 0.63514 11.0615C1.24145 12.5233 2.2682 13.7727 3.58555 14.6518C4.9029 15.5308 6.45168 16 8.03604 16C9.81507 16.0022 11.5432 15.407 12.9426 14.31L16.3371 17.71C16.4302 17.8037 16.5409 17.8781 16.663 17.9289C16.785 17.9797 16.9159 18.0058 17.0481 18.0058C17.1802 18.0058 17.3111 17.9797 17.4331 17.9289C17.5552 17.8781 17.6659 17.8037 17.759 17.71C17.8529 17.617 17.9273 17.5064 17.9782 17.3846C18.029 17.2627 18.0552 17.132 18.0552 17C18.0552 16.868 18.029 16.7373 17.9782 16.6154C17.9273 16.4936 17.8529 16.383 17.759 16.29ZM2.02803 8C2.02803 6.81332 2.3804 5.65328 3.04057 4.66658C3.70073 3.67989 4.63906 2.91085 5.73688 2.45673C6.8347 2.0026 8.04271 1.88378 9.20815 2.11529C10.3736 2.3468 11.4441 2.91825 12.2843 3.75736C13.1246 4.59648 13.6968 5.66558 13.9286 6.82946C14.1604 7.99335 14.0414 9.19975 13.5867 10.2961C13.132 11.3925 12.3619 12.3295 11.3739 12.9888C10.3859 13.6481 9.22431 14 8.03604 14C6.44262 14 4.91446 13.3679 3.78774 12.2426C2.66102 11.1174 2.02803 9.5913 2.02803 8Z" fill="#969696"/>
</svg>
