<svg width="40" height="40" viewBox="0 0 40 40" fill="none" xmlns="http://www.w3.org/2000/svg">
<path d="M29.9668 17.9833V24.65C29.9668 25.0833 29.9502 25.5 29.9002 25.9C29.5168 30.4 26.8668 32.6333 21.9835 32.6333H21.3168C20.9002 32.6333 20.5002 32.8333 20.2502 33.1667L18.2502 35.8333C17.3669 37.0167 15.9335 37.0167 15.0502 35.8333L13.0501 33.1667C12.8335 32.8833 12.3502 32.6333 11.9835 32.6333H11.3168C6.00018 32.6333 3.3335 31.3167 3.3335 24.65V17.9833C3.3335 13.1 5.58351 10.45 10.0668 10.0667C10.4668 10.0167 10.8835 10 11.3168 10H21.9835C27.3002 10 29.9668 12.6667 29.9668 17.9833Z" stroke="#067DBF" stroke-width="1.5" stroke-miterlimit="10" stroke-linecap="round" stroke-linejoin="round"/>
<path d="M36.6336 11.3167V17.9834C36.6336 22.8834 34.3836 25.5167 29.9002 25.9001C29.9502 25.5001 29.9669 25.0834 29.9669 24.6501V17.9834C29.9669 12.6667 27.3002 10 21.9836 10H11.3169C10.8836 10 10.4669 10.0167 10.0669 10.0667C10.4502 5.58339 13.1002 3.33337 17.9836 3.33337H28.6502C33.9669 3.33337 36.6336 6.00005 36.6336 11.3167Z" stroke="#067DBF" stroke-width="1.5" stroke-miterlimit="10" stroke-linecap="round" stroke-linejoin="round"/>
<path d="M22.4923 22.0833H22.5073" stroke="#067DBF" stroke-width="2" stroke-linecap="round" stroke-linejoin="round"/>
<path d="M16.6593 22.0833H16.6743" stroke="#067DBF" stroke-width="2" stroke-linecap="round" stroke-linejoin="round"/>
<path d="M10.8258 22.0833H10.8408" stroke="#067DBF" stroke-width="2" stroke-linecap="round" stroke-linejoin="round"/>
</svg>
