<svg width="41" height="40" viewBox="0 0 41 40" fill="none" xmlns="http://www.w3.org/2000/svg">
<path d="M17.1668 28.25H10.8502C5.2335 28.25 3.8335 26.85 3.8335 21.2333V11.2333C3.8335 5.61667 5.2335 4.21667 10.8502 4.21667H28.4002C34.0168 4.21667 35.4168 5.61667 35.4168 11.2333" stroke="#067DBF" stroke-width="1.5" stroke-linecap="round" stroke-linejoin="round"/>
<path d="M17.1665 35.7833V28.25" stroke="#067DBF" stroke-width="1.5" stroke-linecap="round" stroke-linejoin="round"/>
<path d="M3.8335 21.5833H17.1668" stroke="#067DBF" stroke-width="1.5" stroke-linecap="round" stroke-linejoin="round"/>
<path d="M11.7334 35.7833H17.1667" stroke="#067DBF" stroke-width="1.5" stroke-linecap="round" stroke-linejoin="round"/>
<path d="M37.1666 21.3334V30.85C37.1666 34.8 36.1833 35.7834 32.2333 35.7834H26.3166C22.3666 35.7834 21.3833 34.8 21.3833 30.85V21.3334C21.3833 17.3834 22.3666 16.4 26.3166 16.4H32.2333C36.1833 16.4 37.1666 17.3834 37.1666 21.3334Z" stroke="#067DBF" stroke-width="1.5" stroke-linecap="round" stroke-linejoin="round"/>
<path d="M29.2407 30.4167H29.2557" stroke="#067DBF" stroke-width="2" stroke-linecap="round" stroke-linejoin="round"/>
</svg>
