<svg width="40" height="40" viewBox="0 0 40 40" fill="none" xmlns="http://www.w3.org/2000/svg">
<path d="M9.11702 15C12.3387 15 14.9504 12.3884 14.9504 9.16671C14.9504 5.94505 12.3387 3.33337 9.11702 3.33337C5.89536 3.33337 3.28369 5.94505 3.28369 9.16671C3.28369 12.3884 5.89536 15 9.11702 15Z" stroke="#067DBF" stroke-width="1.5"/>
<path d="M28.2835 25H33.2835C35.1169 25 36.6169 26.5 36.6169 28.3333V33.3333C36.6169 35.1667 35.1169 36.6667 33.2835 36.6667H28.2835C26.4502 36.6667 24.9502 35.1667 24.9502 33.3333V28.3333C24.9502 26.5 26.4502 25 28.2835 25Z" stroke="#067DBF" stroke-width="1.5"/>
<path d="M20.0003 8.33337H24.467C27.5503 8.33337 28.9836 12.15 26.667 14.1834L13.3503 25.8334C11.0336 27.85 12.467 31.6667 15.5336 31.6667H20.0003" stroke="#067DBF" stroke-width="1.5" stroke-linecap="round" stroke-linejoin="round"/>
<path d="M9.14369 9.16671H9.16295" stroke="#067DBF" stroke-width="2" stroke-linecap="round" stroke-linejoin="round"/>
<path d="M30.8102 30.8333H30.8295" stroke="#067DBF" stroke-width="2" stroke-linecap="round" stroke-linejoin="round"/>
</svg>
