<svg width="29" height="30" viewBox="0 0 29 30" fill="none" xmlns="http://www.w3.org/2000/svg">
<path fill-rule="evenodd" clip-rule="evenodd" d="M5.4375 26.25C5.4375 26.25 3.625 26.25 3.625 24.375C3.625 22.5 5.4375 16.875 14.5 16.875C23.5625 16.875 25.375 22.5 25.375 24.375C25.375 26.25 23.5625 26.25 23.5625 26.25H5.4375ZM14.5 15C15.9421 15 17.3252 14.4074 18.3449 13.3525C19.3646 12.2976 19.9375 10.8668 19.9375 9.375C19.9375 7.88316 19.3646 6.45242 18.3449 5.39752C17.3252 4.34263 15.9421 3.75 14.5 3.75C13.0579 3.75 11.6748 4.34263 10.6551 5.39752C9.63538 6.45242 9.0625 7.88316 9.0625 9.375C9.0625 10.8668 9.63538 12.2976 10.6551 13.3525C11.6748 14.4074 13.0579 15 14.5 15Z" fill="white"/>
</svg>
